<?xml version="1.0" encoding="UTF-8"?>
<!DOCTYPE svg PUBLIC "-//W3C//DTD SVG 1.1//EN" "http://www.w3.org/Graphics/SVG/1.1/DTD/svg11.dtd">
<svg xmlns="http://www.w3.org/2000/svg" version="1.1" width="512px" height="512px" style="shape-rendering:geometricPrecision; text-rendering:geometricPrecision; image-rendering:optimizeQuality; fill-rule:evenodd; clip-rule:evenodd" xmlns:xlink="http://www.w3.org/1999/xlink">
<g><path style="opacity:0.981" fill="#2c2c2c" d="M 234.5,43.5 C 242.352,42.5958 249.685,44.0958 256.5,48C 260.678,51.5135 264.845,55.0135 269,58.5C 299.787,49.1544 326.287,55.9878 348.5,79C 358.159,83.8275 367.492,89.1609 376.5,95C 383.938,101.597 389.605,109.43 393.5,118.5C 425.695,124.031 445.028,142.697 451.5,174.5C 467.801,171.898 478.967,178.231 485,193.5C 495.186,281.971 466.686,355.138 399.5,413C 324.411,469.18 242.411,481.846 153.5,451C 122.718,438.223 97.8842,418.056 79,390.5C 38.4986,326.505 19.8319,256.505 23,180.5C 23.4978,161.502 28.4978,143.835 38,127.5C 46.8498,118.031 57.3498,115.865 69.5,121C 74.5772,123.58 79.2438,126.747 83.5,130.5C 97.8201,100.677 118.487,76.1772 145.5,57C 163.089,46.9778 179.255,48.8111 194,62.5C 206.589,54.1209 220.089,47.7875 234.5,43.5 Z"/></g>
<g><path style="opacity:1" fill="#709a55" d="M 234.5,54.5 C 238.936,54.2101 243.27,54.7101 247.5,56C 253.458,60.289 259.124,64.9557 264.5,70C 265.333,70.1667 266.167,70.3333 267,70.5C 288.439,62.3952 308.939,64.2285 328.5,76C 339.985,86.9114 352.985,95.578 367.5,102C 372.883,106.716 377.55,112.049 381.5,118C 370.846,118.913 360.513,121.247 350.5,125C 340.48,129.702 330.48,134.369 320.5,139C 310.833,139.667 301.167,139.667 291.5,139C 286.458,131.081 281.291,123.248 276,115.5C 267.816,106.154 257.65,99.9874 245.5,97C 224.655,98.7527 209.655,90.4193 200.5,72C 205.803,67.3411 211.803,63.6744 218.5,61C 223.893,58.7092 229.226,56.5425 234.5,54.5 Z"/></g>
<g><path style="opacity:1" fill="#a8da88" d="M 275.5,133.5 C 263.53,134.807 252.53,138.973 242.5,146C 234.857,153.311 227.524,160.977 220.5,169C 213.004,174.249 205.337,179.249 197.5,184C 192.573,188.048 187.74,192.215 183,196.5C 179.757,189.68 176.257,183.013 172.5,176.5C 175.193,154.766 182.693,134.766 195,116.5C 195.718,112.541 194.051,110.208 190,109.5C 187.849,109.643 186.182,110.643 185,112.5C 178.871,122.426 173.537,132.759 169,143.5C 164,137.167 159,130.833 154,124.5C 151.686,118.968 151.02,113.302 152,107.5C 149.294,104.022 146.294,103.689 143,106.5C 139.962,116.643 141.629,125.976 148,134.5C 155.07,140.979 160.404,148.646 164,157.5C 164.497,159.81 164.663,162.143 164.5,164.5C 160.036,160.537 155.702,156.37 151.5,152C 146.666,148.748 141.666,145.748 136.5,143C 122.963,138.858 109.296,135.358 95.5,132.5C 109.232,103.262 129.898,80.095 157.5,63C 170.364,59.288 180.864,62.788 189,73.5C 193.996,83.4942 200.83,91.9942 209.5,99C 220.216,104.211 231.55,106.877 243.5,107C 257.96,111.297 268.626,120.13 275.5,133.5 Z"/></g>
<g><path style="opacity:1" fill="#f4fbdc" d="M 172.5,176.5 C 169.833,172.5 167.167,168.5 164.5,164.5C 164.663,162.143 164.497,159.81 164,157.5C 160.404,148.646 155.07,140.979 148,134.5C 141.629,125.976 139.962,116.643 143,106.5C 146.294,103.689 149.294,104.022 152,107.5C 151.02,113.302 151.686,118.968 154,124.5C 159,130.833 164,137.167 169,143.5C 173.537,132.759 178.871,122.426 185,112.5C 186.182,110.643 187.849,109.643 190,109.5C 194.051,110.208 195.718,112.541 195,116.5C 182.693,134.766 175.193,154.766 172.5,176.5 Z"/></g>
<g><path style="opacity:1" fill="#a8da89" d="M 187.5,450.5 C 188.239,450.631 188.906,450.464 189.5,450C 182.629,444.162 176.129,437.995 170,431.5C 165.877,420.506 164.543,409.173 166,397.5C 169.922,386.996 173.255,376.33 176,365.5C 177.351,357.203 177.684,348.87 177,340.5C 173.925,337.941 170.925,337.941 168,340.5C 167.975,357.988 164.309,374.655 157,390.5C 155.837,397.103 155.17,403.77 155,410.5C 151.078,403.658 147.412,396.658 144,389.5C 138.271,373.713 132.271,358.046 126,342.5C 118.492,328.142 110.492,314.142 102,300.5C 100.118,293.484 100.118,286.484 102,279.5C 107.755,271.664 112.755,263.331 117,254.5C 120.171,246.776 121.171,238.776 120,230.5C 117.294,227.022 114.294,226.689 111,229.5C 111.103,244.533 106.103,257.533 96,268.5C 93.3915,273.33 91.3915,277.663 90,281.5C 67.0406,233.76 53.8739,183.427 50.5,130.5C 50.9175,129.778 51.5842,129.278 52.5,129C 58.3929,127.938 63.7262,129.271 68.5,133C 74.7602,137.256 80.4269,142.256 85.5,148C 89.2211,150.527 93.2211,152.527 97.5,154C 126.242,158.405 145.742,174.239 156,201.5C 161.249,216.078 164.582,231.078 166,246.5C 170.712,262.549 180.546,274.383 195.5,282C 211.35,297.037 218.683,315.537 217.5,337.5C 216.964,354.455 214.464,371.122 210,387.5C 207.055,412.288 212.555,434.954 226.5,455.5C 222.541,456.66 218.541,456.827 214.5,456C 205.158,455.212 196.158,453.379 187.5,450.5 Z"/></g>
<g><path style="opacity:1" fill="#a8da88" d="M 436.5,162.5 C 412.402,169.324 392.902,182.991 378,203.5C 371.16,214.51 364.826,225.844 359,237.5C 355.94,240.614 352.44,243.114 348.5,245C 342.241,246.561 336.241,248.727 330.5,251.5C 336.094,227.466 339.26,203.133 340,178.5C 336.255,174.434 332.922,174.767 330,179.5C 328.938,206 324.771,232 317.5,257.5C 301.103,268.564 287.77,282.564 277.5,299.5C 271.491,291.135 267.324,281.802 265,271.5C 263.454,260.163 263.12,248.829 264,237.5C 260.714,233.515 257.381,233.515 254,237.5C 249.487,264.114 255.321,288.114 271.5,309.5C 268.711,314.123 265.045,317.956 260.5,321C 255.5,323.5 250.5,326 245.5,328.5C 245.569,304.485 237.235,283.985 220.5,267C 212.067,262.703 204.233,257.536 197,251.5C 193.473,247.446 191.306,242.78 190.5,237.5C 199.535,216.298 214.535,200.798 235.5,191C 242.848,184.993 248.681,177.827 253,169.5C 260.1,161.034 268.933,155.201 279.5,152C 293.824,150.954 308.158,149.954 322.5,149C 335.353,143.076 348.353,137.409 361.5,132C 382.457,126.91 402.124,129.91 420.5,141C 428.002,146.653 433.336,153.82 436.5,162.5 Z"/></g>
<g><path style="opacity:1" fill="#f3fadb" d="M 50.5,130.5 C 53.8739,183.427 67.0406,233.76 90,281.5C 91.3915,277.663 93.3915,273.33 96,268.5C 106.103,257.533 111.103,244.533 111,229.5C 114.294,226.689 117.294,227.022 120,230.5C 121.171,238.776 120.171,246.776 117,254.5C 112.755,263.331 107.755,271.664 102,279.5C 100.118,286.484 100.118,293.484 102,300.5C 110.492,314.142 118.492,328.142 126,342.5C 132.271,358.046 138.271,373.713 144,389.5C 147.412,396.658 151.078,403.658 155,410.5C 155.17,403.77 155.837,397.103 157,390.5C 164.309,374.655 167.975,357.988 168,340.5C 170.925,337.941 173.925,337.941 177,340.5C 177.684,348.87 177.351,357.203 176,365.5C 173.255,376.33 169.922,386.996 166,397.5C 164.543,409.173 165.877,420.506 170,431.5C 176.129,437.995 182.629,444.162 189.5,450C 188.906,450.464 188.239,450.631 187.5,450.5C 180.079,449.138 173.079,446.804 166.5,443.5C 161.5,437.664 156.667,431.664 152,425.5C 144.333,411.833 136.667,398.167 129,384.5C 120.551,373.721 110.051,365.554 97.5,360C 86.924,355.864 76.2573,352.031 65.5,348.5C 63.3052,343.915 61.3052,339.249 59.5,334.5C 70.5072,339.338 81.8406,343.505 93.5,347C 103.274,350.718 112.274,355.718 120.5,362C 121.332,362.688 121.998,362.521 122.5,361.5C 118.213,350.926 113.38,340.592 108,330.5C 80.6282,292.077 61.6282,249.744 51,203.5C 46.8577,184.979 43.691,166.312 41.5,147.5C 42.1798,140.467 45.1798,134.801 50.5,130.5 Z"/></g>
<g><path style="opacity:1" fill="#709a55" d="M 95.5,132.5 C 109.296,135.358 122.963,138.858 136.5,143C 141.666,145.748 146.666,148.748 151.5,152C 155.702,156.37 160.036,160.537 164.5,164.5C 167.167,168.5 169.833,172.5 172.5,176.5C 176.257,183.013 179.757,189.68 183,196.5C 187.74,192.215 192.573,188.048 197.5,184C 205.337,179.249 213.004,174.249 220.5,169C 227.524,160.977 234.857,153.311 242.5,146C 252.53,138.973 263.53,134.807 275.5,133.5C 277.019,136.021 278.686,138.521 280.5,141C 266.991,144.52 255.491,151.354 246,161.5C 242.02,168.624 237.186,175.124 231.5,181C 218.592,187.571 207.092,196.071 197,206.5C 188.276,217.274 181.609,229.274 177,242.5C 174.301,218.734 166.634,196.734 154,176.5C 139.948,157.484 121.115,146.317 97.5,143C 91.5067,140.491 90.84,136.991 95.5,132.5 Z"/></g>
<g><path style="opacity:1" fill="#a8da89" d="M 41.5,147.5 C 43.691,166.312 46.8577,184.979 51,203.5C 61.6282,249.744 80.6282,292.077 108,330.5C 113.38,340.592 118.213,350.926 122.5,361.5C 121.998,362.521 121.332,362.688 120.5,362C 112.274,355.718 103.274,350.718 93.5,347C 81.8406,343.505 70.5072,339.338 59.5,334.5C 46.8518,301.962 38.6851,268.295 35,233.5C 32.4978,210.066 33.1644,186.733 37,163.5C 37.9486,157.87 39.4486,152.537 41.5,147.5 Z"/></g>
<g><path style="opacity:1" fill="#709a56" d="M 436.5,162.5 C 439.376,167.336 440.709,172.669 440.5,178.5C 419.295,185.524 401.795,197.857 388,215.5C 380.575,226.678 373.908,238.345 368,250.5C 365.833,252.667 363.667,254.833 361.5,257C 338.446,264.938 318.613,277.772 302,295.5C 294.994,304.837 288.994,314.837 284,325.5C 279.601,330.947 274.101,334.78 267.5,337C 253.46,339.019 240.46,343.852 228.5,351.5C 227.668,340.849 227.168,330.182 227,319.5C 224.604,305.29 218.937,292.623 210,281.5C 201.667,274.5 193.333,267.5 185,260.5C 184.493,252.205 186.326,244.538 190.5,237.5C 191.306,242.78 193.473,247.446 197,251.5C 204.233,257.536 212.067,262.703 220.5,267C 237.235,283.985 245.569,304.485 245.5,328.5C 250.5,326 255.5,323.5 260.5,321C 265.045,317.956 268.711,314.123 271.5,309.5C 273.988,306.534 275.988,303.201 277.5,299.5C 287.77,282.564 301.103,268.564 317.5,257.5C 321.836,255.495 326.17,253.495 330.5,251.5C 336.241,248.727 342.241,246.561 348.5,245C 352.44,243.114 355.94,240.614 359,237.5C 364.826,225.844 371.16,214.51 378,203.5C 392.902,182.991 412.402,169.324 436.5,162.5 Z"/></g>
<g><path style="opacity:1" fill="#f3fadb" d="M 330.5,251.5 C 326.17,253.495 321.836,255.495 317.5,257.5C 324.771,232 328.938,206 330,179.5C 332.922,174.767 336.255,174.434 340,178.5C 339.26,203.133 336.094,227.466 330.5,251.5 Z"/></g>
<g><path style="opacity:1" fill="#a8da89" d="M 473.5,270.5 C 460.221,281.744 445.221,290.077 428.5,295.5C 428.167,295.167 427.833,294.833 427.5,294.5C 440.733,274.706 451.9,253.706 461,231.5C 462.132,225.13 459.632,222.796 453.5,224.5C 435.586,266.024 411.419,303.358 381,336.5C 372.333,344.5 363.667,352.5 355,360.5C 363.085,331.236 361.919,302.236 351.5,273.5C 360.303,270.172 368.137,265.172 375,258.5C 381.414,246.671 388.08,235.004 395,223.5C 410.903,202.129 432.07,189.129 458.5,184.5C 466.779,185.276 472.279,189.609 475,197.5C 478.713,221.973 478.213,246.306 473.5,270.5 Z"/></g>
<g><path style="opacity:1" fill="#f3fadb" d="M 106.5,205.5 C 114.486,204.998 116.486,208.165 112.5,215C 104.805,215.443 102.805,212.277 106.5,205.5 Z"/></g>
<g><path style="opacity:1" fill="#f4fbdb" d="M 473.5,270.5 C 473.126,276.421 471.793,282.088 469.5,287.5C 456.65,296.088 442.65,302.254 427.5,306C 423.888,307.139 420.554,308.806 417.5,311C 410.627,318.205 404.127,325.705 398,333.5C 388.833,342.667 379.667,351.833 370.5,361C 356.195,372.817 341.528,384.151 326.5,395C 363.388,391.871 398.055,381.371 430.5,363.5C 424.885,371.449 418.552,378.782 411.5,385.5C 382.506,396.748 352.506,403.915 321.5,407C 309.179,410.332 299.345,417.165 292,427.5C 285.28,436.713 278.78,446.047 272.5,455.5C 267.482,455.613 262.482,455.947 257.5,456.5C 264.609,448.985 270.776,440.652 276,431.5C 290.208,411.625 307.375,394.791 327.5,381C 343.257,365.585 350.923,346.752 350.5,324.5C 350.182,308.268 347.182,292.601 341.5,277.5C 344.603,275.616 347.937,274.282 351.5,273.5C 361.919,302.236 363.085,331.236 355,360.5C 363.667,352.5 372.333,344.5 381,336.5C 411.419,303.358 435.586,266.024 453.5,224.5C 459.632,222.796 462.132,225.13 461,231.5C 451.9,253.706 440.733,274.706 427.5,294.5C 427.833,294.833 428.167,295.167 428.5,295.5C 445.221,290.077 460.221,281.744 473.5,270.5 Z"/></g>
<g><path style="opacity:1" fill="#f3fada" d="M 277.5,299.5 C 275.988,303.201 273.988,306.534 271.5,309.5C 255.321,288.114 249.487,264.114 254,237.5C 257.381,233.515 260.714,233.515 264,237.5C 263.12,248.829 263.454,260.163 265,271.5C 267.324,281.802 271.491,291.135 277.5,299.5 Z"/></g>
<g><path style="opacity:1" fill="#a8da89" d="M 341.5,277.5 C 347.182,292.601 350.182,308.268 350.5,324.5C 350.923,346.752 343.257,365.585 327.5,381C 307.375,394.791 290.208,411.625 276,431.5C 270.776,440.652 264.609,448.985 257.5,456.5C 251.491,456.666 245.491,456.499 239.5,456C 233.986,448.804 229.653,440.971 226.5,432.5C 228.657,429.554 230.157,426.221 231,422.5C 231.333,410.833 231.667,399.167 232,387.5C 233.368,375.891 237.202,365.225 243.5,355.5C 247.546,353.148 251.88,351.315 256.5,350C 272.186,348.745 284.686,341.911 294,329.5C 303.685,306.397 319.519,289.064 341.5,277.5 Z"/></g>
<g><path style="opacity:1" fill="#a9da89" d="M 469.5,287.5 C 461.73,315.711 448.73,341.044 430.5,363.5C 398.055,381.371 363.388,391.871 326.5,395C 341.528,384.151 356.195,372.817 370.5,361C 379.667,351.833 388.833,342.667 398,333.5C 404.127,325.705 410.627,318.205 417.5,311C 420.554,308.806 423.888,307.139 427.5,306C 442.65,302.254 456.65,296.088 469.5,287.5 Z"/></g>
<g><path style="opacity:1" fill="#a8d988" d="M 65.5,348.5 C 76.2573,352.031 86.924,355.864 97.5,360C 110.051,365.554 120.551,373.721 129,384.5C 136.667,398.167 144.333,411.833 152,425.5C 156.667,431.664 161.5,437.664 166.5,443.5C 120.897,424.565 87.2301,392.898 65.5,348.5 Z"/></g>
<g><path style="opacity:1" fill="#709a56" d="M 243.5,355.5 C 237.202,365.225 233.368,375.891 232,387.5C 231.667,399.167 231.333,410.833 231,422.5C 230.157,426.221 228.657,429.554 226.5,432.5C 223.914,426.505 222.08,420.172 221,413.5C 219.9,400.391 220.567,387.391 223,374.5C 223.396,371.304 224.562,368.47 226.5,366C 231.553,361.475 237.219,357.975 243.5,355.5 Z"/></g>
<g><path style="opacity:1" fill="#a8da89" d="M 411.5,385.5 C 373.012,423.911 326.679,447.245 272.5,455.5C 278.78,446.047 285.28,436.713 292,427.5C 299.345,417.165 309.179,410.332 321.5,407C 352.506,403.915 382.506,396.748 411.5,385.5 Z"/></g>
</svg>
